<svg width="16" height="16" viewBox="0 0 16 16" fill="none" xmlns="http://www.w3.org/2000/svg">
<path d="M8.12016 7.56665C9.21184 7.5668 10.102 6.69151 10.1202 5.59998V4.85332C10.1202 4.41017 9.94237 3.98554 9.62652 3.6747C9.31066 3.36387 8.88325 3.19284 8.44016 3.19998H7.80682C6.89632 3.20365 6.16015 3.9428 6.16016 4.85332V5.59998C6.17788 6.67613 7.04407 7.54527 8.12016 7.56665Z" fill="#6210E8"/>
<path d="M15.187 11.0066L15.107 9.99997C15.0205 9.49442 14.5865 9.12199 14.0737 9.11331H11.1937C11.1495 9.10643 11.1045 9.10643 11.0604 9.11331C10.8048 8.82632 10.4379 8.66352 10.0537 8.66664H6.19368C5.78678 8.66486 5.40133 8.84899 5.14702 9.16664C5.03809 9.12681 4.923 9.1065 4.80702 9.10664H1.92702C1.41208 9.1159 0.977293 9.49178 0.893685 9.99997L0.813685 11.04C0.74669 11.3589 0.823672 11.6911 1.0241 11.9481C1.22454 12.2051 1.52804 12.3606 1.85368 12.3733H4.88702C4.94682 12.3802 5.00722 12.3802 5.06702 12.3733C5.33143 12.6652 5.70654 12.8321 6.10035 12.8333H10.147C10.5288 12.8315 10.893 12.6723 11.1537 12.3933H14.147C14.4845 12.384 14.7992 12.2211 15.0018 11.9511C15.2044 11.681 15.2726 11.3332 15.187 11.0066Z" fill="#6210E8"/>
<path d="M12.667 8.0733C13.477 8.0733 14.1337 7.41665 14.1337 6.60663V6.03997C14.1338 5.70701 13.9993 5.38815 13.7607 5.15587C13.5222 4.92359 13.1998 4.79764 12.867 4.80663H12.4003C11.7192 4.80663 11.167 5.35882 11.167 6.03997V6.60663C11.1669 7.00146 11.326 7.37966 11.6083 7.65569C11.8906 7.93172 12.2723 8.08227 12.667 8.0733V8.0733Z" fill="#6210E8"/>
<path d="M3.36706 8.07334C4.17707 8.07334 4.83372 7.41669 4.83372 6.60667V6.04C4.83372 5.35885 4.28154 4.80667 3.60039 4.80667H3.13372C2.45257 4.80667 1.90039 5.35885 1.90039 6.04V6.60667C1.90039 7.41669 2.55704 8.07334 3.36706 8.07334V8.07334Z" fill="#6210E8"/>
</svg>
