<svg width="16" height="16" viewBox="0 0 16 16" fill="none" xmlns="http://www.w3.org/2000/svg">
<path fill-rule="evenodd" clip-rule="evenodd" d="M9.63579 2.53546L12.9705 4.99862C13.6132 5.46373 13.9956 6.20741 14 7.00073V11.4597C13.9587 12.8895 12.7711 14.0178 11.3411 13.986H4.66526C3.2328 14.0214 2.0413 12.892 2 11.4597V7.00073C2.0044 6.20741 2.38679 5.46373 3.02947 4.99862L6.36421 2.53546C7.33788 1.82151 8.66212 1.82151 9.63579 2.53546ZM5.1579 11.3144H10.8421C11.1037 11.3144 11.3158 11.1023 11.3158 10.8407C11.3158 10.5791 11.1037 10.3671 10.8421 10.3671H5.1579C4.89629 10.3671 4.68421 10.5791 4.68421 10.8407C4.68421 11.1023 4.89629 11.3144 5.1579 11.3144Z" fill="#6210E8"/>
</svg>
