<svg width="145" height="40" viewBox="0 0 145 40" fill="none" xmlns="http://www.w3.org/2000/svg">
<g opacity="0.6">
<circle cx="13.1621" cy="28.2132" r="1.1567" transform="rotate(-60 13.1621 28.2132)" fill="#10E8B4"/>
<circle cx="10.002" cy="28.2132" r="1.1567" transform="rotate(-60 10.002 28.2132)" fill="#10E8B4"/>
</g>
<path d="M17.3742 26.2159C16.7613 26.2159 16.2328 26.4272 15.789 26.85C15.3662 27.2938 15.1549 27.8222 15.1549 28.4352C15.1549 29.0482 15.3662 29.566 15.789 29.9887C16.2328 30.4326 16.7613 30.6545 17.3742 30.6545C16.9092 31.965 16.106 33.0324 14.9646 33.8567C13.8233 34.681 12.5339 35.0932 11.0967 35.0932C9.25779 35.0932 7.69369 34.438 6.40436 33.1275C5.0939 31.8382 4.43867 30.2741 4.43867 28.4352C4.43867 26.5963 5.0939 25.0322 6.40436 23.7429C7.69369 22.4324 9.25779 21.7772 11.0967 21.7772C12.7242 21.7772 14.1509 22.295 15.3768 23.3307C15.8418 23.7323 16.3808 23.9014 16.9938 23.838C17.6067 23.7957 18.114 23.5421 18.5156 23.0771C18.896 22.6121 19.0651 22.0731 19.0229 21.4602C18.9594 20.8472 18.6952 20.3399 18.2302 19.9383C16.18 18.2051 13.8021 17.3385 11.0967 17.3385C8.03187 17.3385 5.42151 18.4271 3.26559 20.6041C1.08853 22.76 0 25.3704 0 28.4352C0 31.5 1.08853 34.1104 3.26559 36.2663C5.42151 38.4433 8.03187 39.5319 11.0967 39.5319C14.1615 39.5319 16.7718 38.4433 18.9277 36.2663C21.1048 34.1104 22.1933 31.5 22.1933 28.4352C22.1933 27.8222 21.982 27.2938 21.5592 26.85C21.1154 26.4272 20.587 26.2159 19.974 26.2159H17.3742Z" fill="#6210E8"/>
<circle cx="19.8552" cy="28.6334" r="2.22924" fill="#6210E8"/>
<path d="M86.2266 35.0932H81.4709V21.7772H86.2266V17.3385H79.2516C78.6386 17.3385 78.1102 17.5605 77.6663 18.0043C77.2436 18.4271 77.0322 18.9449 77.0322 19.5579V37.3125C77.0322 37.9255 77.2436 38.4539 77.6663 38.8978C78.1102 39.3205 78.6386 39.5319 79.2516 39.5319H86.2266C89.2914 39.5319 91.9018 38.4433 94.0577 36.2663C96.2347 34.1103 97.3233 31.5 97.3233 28.4352H92.8945C92.8945 30.2741 92.2294 31.8382 90.9189 33.1275C89.6296 34.438 88.0655 35.0932 86.2266 35.0932Z" fill="#6210E8"/>
<circle r="2.22924" transform="matrix(1 0 0 -1 86.197 19.5678)" fill="#6210E8"/>
<circle r="2.22924" transform="matrix(1 0 0 -1 95.114 28.4847)" fill="#6210E8"/>
<g opacity="0.6">
<circle cx="93.5878" cy="21.3016" r="0.74308" fill="#10E8B4"/>
<circle cx="95.0741" cy="24.274" r="0.74308" fill="#10E8B4"/>
<circle cx="90.4919" cy="19.6916" r="0.866927" fill="#10E8B4"/>
</g>
<g opacity="0.6">
<circle cx="119.596" cy="37.154" r="0.74308" fill="#10E8B4"/>
<circle cx="120.339" cy="38.8879" r="0.74308" fill="#10E8B4"/>
<circle cx="118.852" cy="35.4202" r="0.74308" fill="#10E8B4"/>
</g>
<path fill-rule="evenodd" clip-rule="evenodd" d="M111.718 18.5434C111.337 17.8036 110.682 17.4337 109.752 17.4337C108.801 17.4337 108.135 17.8036 107.755 18.5434L98.8773 36.298C98.6026 36.8476 98.5603 37.4183 98.7505 38.0101C98.9407 38.5808 99.3106 39.0035 99.8602 39.2783C100.41 39.553 100.98 39.5953 101.572 39.4051C102.143 39.2149 102.566 38.845 102.84 38.2954L104.457 35.0932H115.015C115.015 35.0932 117.159 35.1973 118.149 34.7019C118.769 34.3303 119.188 33.4837 118.559 32.2249L111.718 18.5434ZM109.752 24.5038L106.677 30.6546H112.796L109.752 24.5038Z" fill="#6210E8"/>
<path fill-rule="evenodd" clip-rule="evenodd" d="M133.467 39.6309C139.623 39.6309 144.614 34.6406 144.614 28.4847C144.614 22.3289 139.623 17.3385 133.467 17.3385C127.312 17.3385 122.321 22.3289 122.321 28.4847C122.321 34.6406 127.312 39.6309 133.467 39.6309ZM133.467 35.1725C137.161 35.1725 140.155 32.1783 140.155 28.4848C140.155 24.7912 137.161 21.797 133.467 21.797C129.774 21.797 126.78 24.7912 126.78 28.4848C126.78 32.1783 129.774 35.1725 133.467 35.1725Z" fill="#6210E8"/>
<path d="M75.9834 1.27306C75.6773 1.51039 75.4217 1.80639 75.2314 2.14374C75.2113 2.17762 75.1932 2.21267 75.1773 2.24872L61.063 32.4536L60.799 39.1579C61.1402 39.3591 61.5188 39.4885 61.9118 39.5383C62.3047 39.5881 62.7037 39.5573 63.0843 39.4476C63.4649 39.3379 63.8191 39.1517 64.1252 38.9005C64.4314 38.6492 64.6831 38.3381 64.8649 37.9862L80.3667 5.0859C81.1388 3.66994 80.6433 1.88215 79.2488 1.06729C78.9153 0.870268 78.5459 0.741751 78.1622 0.689265C77.7784 0.636778 77.3881 0.661377 77.014 0.761621C76.6398 0.861865 76.2895 1.03574 75.9834 1.27306Z" fill="#10E8B4"/>
<path d="M63.2207 39.3443C63.5929 39.2089 63.9336 38.999 64.2219 38.7274L62.4719 32.2465L51.3233 19.0687C51.0742 18.7722 50.7684 18.5283 50.4238 18.3514C50.0792 18.1745 49.7029 18.0682 49.3167 18.0386C48.9305 18.0089 48.5423 18.0567 48.1748 18.1789C47.8073 18.3012 47.4679 18.4956 47.1764 18.7506C46.5838 19.269 46.2181 19.9991 46.1579 20.7841C46.0977 21.5691 46.3478 22.3464 46.8544 22.949L59.9976 38.483C60.2526 38.7861 60.5668 39.0339 60.921 39.2113C61.2751 39.3887 61.6617 39.492 62.0571 39.5149C62.4525 39.5378 62.8485 39.4797 63.2207 39.3443Z" fill="#10E8B4"/>
<path fill-rule="evenodd" clip-rule="evenodd" d="M35.1726 39.6309C41.3285 39.6309 46.3188 34.6406 46.3188 28.4847C46.3188 22.3289 41.3285 17.3385 35.1726 17.3385C29.0167 17.3385 24.0264 22.3289 24.0264 28.4847C24.0264 34.6406 29.0167 39.6309 35.1726 39.6309ZM35.1724 35.1725C38.866 35.1725 41.8601 32.1783 41.8601 28.4848C41.8601 24.7912 38.866 21.797 35.1724 21.797C31.4789 21.797 28.4847 24.7912 28.4847 28.4848C28.4847 32.1783 31.4789 35.1725 35.1724 35.1725Z" fill="#6210E8"/>
</svg>
