<svg width="16" height="16" viewBox="0 0 16 16" fill="none" xmlns="http://www.w3.org/2000/svg">
<path d="M13.5335 2.46664L14.6668 5.53331C14.8853 6.13399 14.8036 6.80294 14.4468 7.33331C14.042 7.92333 13.3818 8.28683 12.6668 8.31331C11.5509 8.39855 10.5434 7.64714 10.3068 6.55331C10.3068 6.55331 10.2668 6.55331 10.2601 6.55331C10.0392 7.61408 9.08271 8.35893 8.00013 8.31331C6.92249 8.35227 5.97362 7.60894 5.75346 6.55331C5.75346 6.55331 5.71346 6.55331 5.70679 6.55331C5.57772 7.13994 5.22044 7.65106 4.71383 7.97379C4.20723 8.29651 3.593 8.40428 3.00679 8.27331C2.48573 8.18767 2.01265 7.91802 1.67346 7.51331C1.23364 6.95625 1.12201 6.20781 1.38013 5.54664L2.48679 2.46664C2.74679 1.81112 3.38851 1.38775 4.09346 1.40664H11.9268C12.6317 1.38775 13.2735 1.81112 13.5335 2.46664Z" fill="#6210E8"/>
<path d="M12.7337 9.33333V12.7333C12.7233 13.1064 12.5649 13.4601 12.2936 13.7164C12.0223 13.9728 11.6602 14.1108 11.2871 14.1H9.40039V12C9.36447 11.299 8.76811 10.7593 8.06706 10.7933C7.72058 10.7895 7.38524 10.9156 7.12706 11.1467C6.87865 11.3608 6.73519 11.672 6.73372 12V14.1H4.84706C4.46941 14.1108 4.1033 13.9691 3.83119 13.7071C3.55907 13.445 3.40382 13.0844 3.40039 12.7067V9.33333H3.45372C4.28929 9.33492 5.09618 9.02878 5.72039 8.47333C7.02868 9.61466 8.97877 9.61466 10.2871 8.47333C10.9137 9.03351 11.7266 9.34012 12.5671 9.33333H12.7337Z" fill="#6210E8"/>
</svg>
