<svg width="16" height="16" viewBox="0 0 16 16" fill="none" xmlns="http://www.w3.org/2000/svg">
<path d="M6.49963 9.75334C6.62507 9.99138 6.53963 10.286 6.3063 10.42C6.23211 10.4585 6.1499 10.4791 6.0663 10.48C5.88485 10.4804 5.71702 10.3838 5.6263 10.2267L4.7663 8.66667C4.63892 8.4263 4.72708 8.1282 4.96471 7.99578C5.20234 7.86336 5.50223 7.94522 5.63963 8.18L6.49963 9.75334Z" fill="#6210E8"/>
<path fill-rule="evenodd" clip-rule="evenodd" d="M9.43987 6.76671H12.6265C12.8106 6.76671 12.9599 6.91594 12.9599 7.10004V11.7134C12.9599 13.1861 11.766 14.38 10.2932 14.38H5.69987C4.22711 14.38 3.0332 13.1861 3.0332 11.7134V4.28004C3.0332 2.80728 4.22711 1.61337 5.69987 1.61337H7.47987C7.66248 1.61692 7.80966 1.7641 7.8132 1.94671V5.12671C7.81143 5.55989 7.98182 5.97604 8.28688 6.2836C8.59194 6.59116 9.00668 6.76494 9.43987 6.76671ZM7.91445 13.4484C8.00226 13.4009 8.05398 13.3063 8.04654 13.2067L8.08654 11.8867C8.08422 11.7002 8.03614 11.517 7.94654 11.3534L6.19321 8.15338C5.94658 7.55659 5.27191 7.26198 4.66654 7.48672C4.14336 7.87688 4.02521 8.61232 4.39987 9.14672L6.14654 12.36C6.23515 12.525 6.36638 12.6631 6.52654 12.76L7.63987 13.4267C7.71913 13.4874 7.82664 13.4959 7.91445 13.4484Z" fill="#6210E8"/>
<path d="M8.51367 2V5.04666C8.51367 5.59158 8.95542 6.03333 9.50034 6.03333H12.587C12.7516 6.0469 12.9055 5.95075 12.9655 5.79691C13.0255 5.64307 12.9773 5.46809 12.847 5.36666L9.14701 1.73333C9.03954 1.62904 8.88015 1.59905 8.74213 1.65717C8.60411 1.71528 8.51417 1.85024 8.51367 2Z" fill="#6210E8"/>
</svg>
